<?xml version="1.0" encoding="iso-8859-1"?>
<!-- Uploaded to: SVG Repo, www.svgrepo.com, Generator: SVG Repo Mixer Tools -->
<svg height="800px" width="800px" version="1.1" id="Layer_1" xmlns="http://www.w3.org/2000/svg" xmlns:xlink="http://www.w3.org/1999/xlink" 
	 viewBox="0 0 511.902 511.902" xml:space="preserve">
<g>
	<g>
		<path style="fill:#F0EDE0;" d="M268.995,312.41h-8.678c-4.799,0-8.678-3.888-8.678-8.678c0-4.79,3.879-8.678,8.678-8.678h8.678
			c4.799,0,8.678,3.888,8.678,8.678C277.672,308.522,273.793,312.41,268.995,312.41"/>
		<path style="fill:#F0EDE0;" d="M242.961,364.478h-8.678c-4.799,0-8.678-3.888-8.678-8.678s3.879-8.678,8.678-8.678h8.678
			c4.799,0,8.678,3.888,8.678,8.678S247.76,364.478,242.961,364.478"/>
		<path style="fill:#F0EDE0;" d="M268.995,416.546h-8.678c-4.799,0-8.678-3.888-8.678-8.678s3.879-8.678,8.678-8.678h8.678
			c4.799,0,8.678,3.888,8.678,8.678S273.793,416.546,268.995,416.546"/>
		<path style="fill:#F0EDE0;" d="M242.961,468.614h-8.678c-4.799,0-8.678-3.888-8.678-8.678s3.879-8.678,8.678-8.678h8.678
			c4.799,0,8.678,3.888,8.678,8.678S247.76,468.614,242.961,468.614"/>
	</g>
	<g>
		<path style="fill:#5ABA63;" d="M251.639,511.902c-4.799,0-8.678-3.888-8.678-8.678V239.579c0-4.79,3.879-8.678,8.678-8.678
			s8.678,3.888,8.678,8.678v263.645C260.317,508.014,256.438,511.902,251.639,511.902"/>
		<path style="fill:#5ABA63;" d="M251.639,389.232c-2.022,0-4.061-0.703-5.701-2.135c-3.61-3.15-3.992-8.635-0.842-12.245
			l3.41-3.957c7.194-8.374,15.334-17.868,24.515-23.7c4.044-2.569,9.398-1.371,11.984,2.673c2.569,4.044,1.362,9.407-2.681,11.976
			c-7.003,4.443-14.241,12.895-20.645,20.35l-3.497,4.061C256.464,388.225,254.051,389.232,251.639,389.232"/>
	</g>
	<path style="fill:#91CF96;" d="M277.681,363.19c-4.799,0-8.678-3.888-8.678-8.678c0-33.896,9.91-60.763,29.444-79.863
		c15.438-15.082,45.429-32.811,98.764-31.579l1.883,0.035c4.799,0,8.678,3.888,8.678,8.678l0.061,2.959
		c0.33,13.095,1.206,47.885-24.888,74.639C361.068,351.813,325.653,363.19,277.681,363.19"/>
	<g>
		<path style="fill:#5ABA63;" d="M277.664,363.198c-1.979,0-3.966-0.677-5.597-2.048c-3.653-3.098-4.113-8.574-1.024-12.236
			c8.643-10.223,37.845-38.869,55.513-45.854c4.443-1.762,9.494,0.425,11.255,4.877c1.762,4.46-0.425,9.502-4.886,11.264
			c-12.869,5.085-39.172,29.731-48.623,40.925C282.584,362.148,280.128,363.198,277.664,363.198"/>
		<path style="fill:#5ABA63;" d="M251.639,442.745c-2.412,0-4.825-1.007-6.543-2.977l-3.888-4.53
			c-6.292-7.359-13.416-15.698-20.254-20.046c-4.044-2.569-5.25-7.932-2.681-11.976c2.586-4.044,7.949-5.241,11.984-2.673
			c9.042,5.736,17.07,15.134,24.142,23.422l3.784,4.4c3.15,3.61,2.768,9.095-0.842,12.245
			C255.7,442.042,253.661,442.745,251.639,442.745"/>
	</g>
	<path style="fill:#91CF96;" d="M225.605,416.537c-44.787,0-77.859-10.631-98.295-31.596
		c-24.376-24.993-23.552-57.422-23.248-69.632l0.052-2.734c0-4.79,3.879-8.678,8.678-8.678l1.77-0.035
		c50.011-1.102,77.789,15.343,92.203,29.418c18.258,17.833,27.518,42.921,27.518,74.578
		C234.283,412.649,230.404,416.537,225.605,416.537"/>
	<path style="fill:#5ABA63;" d="M225.613,416.546c-2.465,0-4.912-1.05-6.639-3.072c-8.348-9.884-35.38-35.528-48.623-40.76
		c-4.46-1.762-6.647-6.804-4.886-11.264c1.762-4.46,6.838-6.621,11.255-4.877c17.816,7.038,46.922,35.545,55.513,45.689
		c3.089,3.662,2.629,9.138-1.024,12.236C229.579,415.869,227.592,416.546,225.613,416.546"/>
	<path style="fill:#C2493D;" d="M355.774,26.037V155.99c0,47.147-39.632,86.997-86.78,86.997c0,0-52.068,0.538-52.068-60.746
		C216.927,121.859,276.588,65.635,355.774,26.037"/>
	<path style="fill:#E86C59;" d="M216.927,182.24c0-28.047,12.991-55.166,34.712-80.176c-25.045-28.82-61.735-54.827-104.136-76.028
		v129.953c0,47.147,39.632,86.997,86.78,86.997c0,0,7.801,0.035,17.356-3.41C236.496,234.117,216.927,219.824,216.927,182.24"/>
	<path style="fill:#AD2C2F;" d="M215.324,68.235c13.746,10.717,26.034,22.007,36.283,33.801
		c16.011-18.415,36.777-35.675,60.78-51.269V0C273.831,19.282,239.987,42.513,215.324,68.235"/>
	<path style="fill:#D13834;" d="M215.36,68.263c10.535-10.978,22.728-21.513,36.283-31.475
		c-18.18-13.364-38.66-25.739-60.746-36.786v50.809C199.506,56.417,207.654,62.249,215.36,68.263"/>
</g>
</svg>