<svg width="17" height="23" viewBox="0 0 17 23" fill="none" xmlns="http://www.w3.org/2000/svg">
    <path d="M12 18C12 20.7614 9.76142 23 7 23C4.23858 23 2 20.7614 2 18C2 15.2386 4.23858 13 7 13C9.76142 13 12 15.2386 12 18Z" fill="white"/>
    <path d="M8.5 0C11.9854 0 14.9793 2.46849 16.291 6H13.0137C11.9418 4.08517 10.1599 3 8.5 3C5.90109 3 3 5.65834 3 10C3 14.3417 5.90109 17 8.5 17C9.70891 17 10.9827 16.4243 12 15.3721V19.1113C10.9322 19.68 9.7484 20 8.5 20C3.80558 20 0 15.5228 0 10C0 4.47715 3.80558 0 8.5 0Z" fill="black"/>
    <path d="M7 13H12V18V23H7C8.66667 23 12 22 12 18C12 16.3333 11 13 7 13Z" fill="#FCE4E4"/>
</svg>
